<?xml version="1.0" encoding="UTF-8"?>
<svg xmlns="http://www.w3.org/2000/svg" xmlns:xlink="http://www.w3.org/1999/xlink" width="3240px" height="1080px" viewBox="0 0 3240 1080" version="1.1">
<g id="surface1">
<path style="fill:none;stroke-width:1.5;stroke-linecap:round;stroke-linejoin:miter;stroke:rgb(0%,0%,0%);stroke-opacity:1;stroke-miterlimit:4;" d="M 22.5 11.629883 L 22.5 6 " transform="matrix(12,0,0,12,0,0)"/>
<path style="fill:none;stroke-width:1.5;stroke-linecap:round;stroke-linejoin:miter;stroke:rgb(0%,0%,0%);stroke-opacity:1;stroke-miterlimit:4;" d="M 20 8 L 25 8 " transform="matrix(12,0,0,12,0,0)"/>
<path style="fill-rule:evenodd;fill:rgb(100%,100%,100%);fill-opacity:1;stroke-width:1.5;stroke-linecap:butt;stroke-linejoin:miter;stroke:rgb(0%,0%,0%);stroke-opacity:1;stroke-miterlimit:4;" d="M 22.5 25 C 22.5 25 27 17.5 25.5 14.5 C 25.5 14.5 24.5 12 22.5 12 C 20.5 12 19.5 14.5 19.5 14.5 C 18 17.5 22.5 25 22.5 25 " transform="matrix(12,0,0,12,0,0)"/>
<path style="fill-rule:evenodd;fill:rgb(100%,100%,100%);fill-opacity:1;stroke-width:1.5;stroke-linecap:round;stroke-linejoin:round;stroke:rgb(0%,0%,0%);stroke-opacity:1;stroke-miterlimit:4;" d="M 11.5 37 C 17 40.5 27 40.5 32.5 37 L 32.5 30 C 32.5 30 41.5 25.5 38.5 19.5 C 34.5 13 25 16 22.5 23.5 L 22.5 27 L 22.5 23.5 C 19 16 9.5 13 6.5 19.5 C 3.5 25.5 11.5 29.5 11.5 29.5 Z M 11.5 37 " transform="matrix(12,0,0,12,0,0)"/>
<path style="fill:none;stroke-width:1.5;stroke-linecap:round;stroke-linejoin:round;stroke:rgb(0%,0%,0%);stroke-opacity:1;stroke-miterlimit:4;" d="M 11.5 30 C 17 27 27 27 32.5 30 " transform="matrix(12,0,0,12,0,0)"/>
<path style="fill:none;stroke-width:1.5;stroke-linecap:round;stroke-linejoin:round;stroke:rgb(0%,0%,0%);stroke-opacity:1;stroke-miterlimit:4;" d="M 11.5 33.5 C 17 30.5 27 30.5 32.5 33.5 " transform="matrix(12,0,0,12,0,0)"/>
<path style="fill:none;stroke-width:1.5;stroke-linecap:round;stroke-linejoin:round;stroke:rgb(0%,0%,0%);stroke-opacity:1;stroke-miterlimit:4;" d="M 11.5 37 C 17 34 27 34 32.5 37 " transform="matrix(12,0,0,12,0,0)"/>
<path style="fill-rule:evenodd;fill:rgb(100%,100%,100%);fill-opacity:1;stroke-width:1.5;stroke-linecap:round;stroke-linejoin:round;stroke:rgb(0%,0%,0%);stroke-opacity:1;stroke-miterlimit:4;" d="M 9 13 C 9 14.104492 8.104492 15 7 15 C 5.895508 15 5 14.104492 5 13 C 5 11.895508 5.895508 11 7 11 C 8.104492 11 9 11.895508 9 13 Z M 9 13 " transform="matrix(12,0,0,12,528,-12)"/>
<path style="fill-rule:evenodd;fill:rgb(100%,100%,100%);fill-opacity:1;stroke-width:1.5;stroke-linecap:round;stroke-linejoin:round;stroke:rgb(0%,0%,0%);stroke-opacity:1;stroke-miterlimit:4;" d="M 9 13 C 9 14.104492 8.104492 15 7 15 C 5.895508 15 5 14.104492 5 13 C 5 11.895508 5.895508 11 7 11 C 8.104492 11 9 11.895508 9 13 Z M 9 13 " transform="matrix(12,0,0,12,726,-66)"/>
<path style="fill-rule:evenodd;fill:rgb(100%,100%,100%);fill-opacity:1;stroke-width:1.5;stroke-linecap:round;stroke-linejoin:round;stroke:rgb(0%,0%,0%);stroke-opacity:1;stroke-miterlimit:4;" d="M 9 13 C 9 14.104492 8.104492 15 7 15 C 5.895508 15 5 14.104492 5 13 C 5 11.895508 5.895508 11 7 11 C 8.104492 11 9 11.895508 9 13 Z M 9 13 " transform="matrix(12,0,0,12,924,-12)"/>
<path style="fill-rule:evenodd;fill:rgb(100%,100%,100%);fill-opacity:1;stroke-width:1.5;stroke-linecap:round;stroke-linejoin:round;stroke:rgb(0%,0%,0%);stroke-opacity:1;stroke-miterlimit:4;" d="M 9 13 C 9 14.104492 8.104492 15 7 15 C 5.895508 15 5 14.104492 5 13 C 5 11.895508 5.895508 11 7 11 C 8.104492 11 9 11.895508 9 13 Z M 9 13 " transform="matrix(12,0,0,12,624,-54)"/>
<path style="fill-rule:evenodd;fill:rgb(100%,100%,100%);fill-opacity:1;stroke-width:1.5;stroke-linecap:round;stroke-linejoin:round;stroke:rgb(0%,0%,0%);stroke-opacity:1;stroke-miterlimit:4;" d="M 9 13 C 9 14.104492 8.104492 15 7 15 C 5.895508 15 5 14.104492 5 13 C 5 11.895508 5.895508 11 7 11 C 8.104492 11 9 11.895508 9 13 Z M 9 13 " transform="matrix(12,0,0,12,828,-48)"/>
<path style="fill-rule:evenodd;fill:rgb(100%,100%,100%);fill-opacity:1;stroke-width:1.5;stroke-linecap:butt;stroke-linejoin:round;stroke:rgb(0%,0%,0%);stroke-opacity:1;stroke-miterlimit:4;" d="M 9 26 C 17.5 24.5 30 24.5 36 26 L 38 14 L 31 25 L 31 11 L 25.5 24.5 L 22.5 9.5 L 19.5 24.5 L 14 10.5 L 14 25 L 7 14 Z M 9 26 " transform="matrix(12,0,0,12,540,0)"/>
<path style="fill-rule:evenodd;fill:rgb(100%,100%,100%);fill-opacity:1;stroke-width:1.5;stroke-linecap:butt;stroke-linejoin:round;stroke:rgb(0%,0%,0%);stroke-opacity:1;stroke-miterlimit:4;" d="M 9 26 C 9 28 10.5 28 11.5 30 C 12.5 31.5 12.5 31 12 33.5 C 10.5 34.5 10.5 36 10.5 36 C 9 37.5 11 38.5 11 38.5 C 17.5 39.5 27.5 39.5 34 38.5 C 34 38.5 35.5 37.5 34 36 C 34 36 34.5 34.5 33 33.5 C 32.5 31 32.5 31.5 33.5 30 C 34.5 28 36 28 36 26 C 27.5 24.5 17.5 24.5 9 26 Z M 9 26 " transform="matrix(12,0,0,12,540,0)"/>
<path style="fill:none;stroke-width:1.5;stroke-linecap:round;stroke-linejoin:round;stroke:rgb(0%,0%,0%);stroke-opacity:1;stroke-miterlimit:4;" d="M 11.5 30 C 15 29 30 29 33.5 30 " transform="matrix(12,0,0,12,540,0)"/>
<path style="fill:none;stroke-width:1.5;stroke-linecap:round;stroke-linejoin:round;stroke:rgb(0%,0%,0%);stroke-opacity:1;stroke-miterlimit:4;" d="M 12 33.5 C 18 32.5 27 32.5 33 33.5 " transform="matrix(12,0,0,12,540,0)"/>
<path style="fill-rule:evenodd;fill:rgb(100%,100%,100%);fill-opacity:1;stroke-width:1.5;stroke-linecap:butt;stroke-linejoin:round;stroke:rgb(0%,0%,0%);stroke-opacity:1;stroke-miterlimit:4;" d="M 9 36 C 12.389974 35.029948 19.110026 36.430013 22.5 34 C 25.889974 36.430013 32.610026 35.029948 36 36 C 36 36 37.650065 36.540039 39 38 C 38.319987 38.970052 37.349935 38.989909 36 38.5 C 32.610026 37.529948 25.889974 38.959961 22.5 37.5 C 19.110026 38.959961 12.389974 37.529948 9 38.5 C 7.646159 38.989909 6.677083 38.970052 6 38 C 7.353841 36.059896 9 36 9 36 Z M 9 36 " transform="matrix(12,0,0,12,1080,0)"/>
<path style="fill-rule:evenodd;fill:rgb(100%,100%,100%);fill-opacity:1;stroke-width:1.5;stroke-linecap:butt;stroke-linejoin:round;stroke:rgb(0%,0%,0%);stroke-opacity:1;stroke-miterlimit:4;" d="M 15 32 C 17.5 34.5 27.5 34.5 30 32 C 30.5 30.5 30 30 30 30 C 30 27.5 27.5 26 27.5 26 C 33 24.5 33.5 14.5 22.5 10.5 C 11.5 14.5 12 24.5 17.5 26 C 17.5 26 15 27.5 15 30 C 15 30 14.5 30.5 15 32 Z M 15 32 " transform="matrix(12,0,0,12,1080,0)"/>
<path style="fill-rule:evenodd;fill:rgb(100%,100%,100%);fill-opacity:1;stroke-width:1.5;stroke-linecap:butt;stroke-linejoin:round;stroke:rgb(0%,0%,0%);stroke-opacity:1;stroke-miterlimit:4;" d="M 25 8 C 25 9.380859 23.880859 10.5 22.5 10.5 C 21.119141 10.5 20 9.380859 20 8 C 20 6.619141 21.119141 5.5 22.5 5.5 C 23.880859 5.5 25 6.619141 25 8 Z M 25 8 " transform="matrix(12,0,0,12,1080,0)"/>
<path style="fill:none;stroke-width:1.5;stroke-linecap:round;stroke-linejoin:miter;stroke:rgb(0%,0%,0%);stroke-opacity:1;stroke-miterlimit:4;" d="M 17.5 26 L 27.5 26 M 15 30 L 30 30 M 22.5 15.5 L 22.5 20.5 M 20 18 L 25 18 " transform="matrix(12,0,0,12,1080,0)"/>
<path style="fill-rule:evenodd;fill:rgb(100%,100%,100%);fill-opacity:1;stroke-width:1.5;stroke-linecap:round;stroke-linejoin:round;stroke:rgb(0%,0%,0%);stroke-opacity:1;stroke-miterlimit:4;" d="M 22 10 C 32.5 11 38.5 18 38 39 L 15 39 C 15 30 25 32.5 23 18 " transform="matrix(12,0,0,12,1620,0)"/>
<path style="fill-rule:evenodd;fill:rgb(100%,100%,100%);fill-opacity:1;stroke-width:1.5;stroke-linecap:round;stroke-linejoin:round;stroke:rgb(0%,0%,0%);stroke-opacity:1;stroke-miterlimit:4;" d="M 24 18 C 24.379883 20.910156 18.44987 25.370117 16 27 C 13 29 13.180013 31.339844 11 31 C 9.958008 30.059896 12.410156 27.959961 11 28 C 10 28 11.190104 29.230143 10 30 C 9 30 5.99707 31 6 26 C 6 24 12 14 12 14 C 12 14 13.889974 12.099935 14 10.5 C 13.269857 9.505859 13.5 8.5 13.5 7.5 C 14.5 6.5 16.5 10 16.5 10 L 18.5 10 C 18.5 10 19.279948 8.008138 21 7 C 22 7 22 10 22 10 " transform="matrix(12,0,0,12,1620,0)"/>
<path style="fill-rule:evenodd;fill:rgb(0%,0%,0%);fill-opacity:1;stroke-width:1.5;stroke-linecap:round;stroke-linejoin:round;stroke:rgb(0%,0%,0%);stroke-opacity:1;stroke-miterlimit:4;" d="M 9.5 25.5 C 9.5 25.776042 9.276042 26 9 26 C 8.723958 26 8.5 25.776042 8.5 25.5 C 8.5 25.223958 8.723958 25 9 25 C 9.276042 25 9.5 25.223958 9.5 25.5 Z M 9.5 25.5 " transform="matrix(12,0,0,12,1620,0)"/>
<path style="fill-rule:evenodd;fill:rgb(0%,0%,0%);fill-opacity:1;stroke-width:1.5;stroke-linecap:round;stroke-linejoin:round;stroke:rgb(0%,0%,0%);stroke-opacity:1;stroke-miterlimit:4;" d="M 14.99995 15.500029 C 15.000096 16.328406 14.776297 17.00003 14.500077 17.000133 C 14.223694 16.999954 13.999914 16.328512 14.00005 15.499971 C 13.999904 14.671594 14.223703 13.99997 14.499923 13.999867 C 14.776306 14.000046 15.000086 14.671488 14.99995 15.500029 Z M 14.99995 15.500029 " transform="matrix(10.392,6,-6,10.392,1736.316,-62.076)"/>
<path style="fill-rule:evenodd;fill:rgb(100%,100%,100%);fill-opacity:1;stroke-width:1.5;stroke-linecap:butt;stroke-linejoin:round;stroke:rgb(0%,0%,0%);stroke-opacity:1;stroke-miterlimit:4;" d="M 9 39 L 36 39 L 36 36 L 9 36 Z M 9 39 " transform="matrix(12,0,0,12,2160,0)"/>
<path style="fill-rule:evenodd;fill:rgb(100%,100%,100%);fill-opacity:1;stroke-width:1.5;stroke-linecap:butt;stroke-linejoin:round;stroke:rgb(0%,0%,0%);stroke-opacity:1;stroke-miterlimit:4;" d="M 12 36 L 12 32 L 33 32 L 33 36 Z M 12 36 " transform="matrix(12,0,0,12,2160,0)"/>
<path style="fill-rule:evenodd;fill:rgb(100%,100%,100%);fill-opacity:1;stroke-width:1.5;stroke-linecap:butt;stroke-linejoin:round;stroke:rgb(0%,0%,0%);stroke-opacity:1;stroke-miterlimit:4;" d="M 11 14 L 11 9 L 15 9 L 15 11 L 20 11 L 20 9 L 25 9 L 25 11 L 30 11 L 30 9 L 34 9 L 34 14 " transform="matrix(12,0,0,12,2160,0)"/>
<path style="fill-rule:evenodd;fill:rgb(100%,100%,100%);fill-opacity:1;stroke-width:1.5;stroke-linecap:round;stroke-linejoin:round;stroke:rgb(0%,0%,0%);stroke-opacity:1;stroke-miterlimit:4;" d="M 34 14 L 31 17 L 14 17 L 11 14 " transform="matrix(12,0,0,12,2160,0)"/>
<path style="fill-rule:evenodd;fill:rgb(100%,100%,100%);fill-opacity:1;stroke-width:1.5;stroke-linecap:butt;stroke-linejoin:miter;stroke:rgb(0%,0%,0%);stroke-opacity:1;stroke-miterlimit:4;" d="M 31 17 L 31 29.5 L 14 29.5 L 14 17 " transform="matrix(12,0,0,12,2160,0)"/>
<path style="fill-rule:evenodd;fill:rgb(100%,100%,100%);fill-opacity:1;stroke-width:1.5;stroke-linecap:round;stroke-linejoin:round;stroke:rgb(0%,0%,0%);stroke-opacity:1;stroke-miterlimit:4;" d="M 31 29.5 L 32.5 32 L 12.5 32 L 14 29.5 " transform="matrix(12,0,0,12,2160,0)"/>
<path style="fill:none;stroke-width:1.5;stroke-linecap:round;stroke-linejoin:miter;stroke:rgb(0%,0%,0%);stroke-opacity:1;stroke-miterlimit:4;" d="M 11 14 L 34 14 " transform="matrix(12,0,0,12,2160,0)"/>
<path style="fill-rule:nonzero;fill:rgb(100%,100%,100%);fill-opacity:1;stroke-width:1.5;stroke-linecap:round;stroke-linejoin:miter;stroke:rgb(0%,0%,0%);stroke-opacity:1;stroke-miterlimit:4;" d="M 22 9 C 19.790039 9 18 10.790039 18 13 C 18 13.889974 18.290039 14.709961 18.779948 15.379883 C 16.830078 16.5 15.5 18.589844 15.5 21 C 15.5 23.029948 16.440104 24.839844 17.910156 26.029948 C 14.910156 27.089844 10.5 31.580078 10.5 39.5 L 33.5 39.5 C 33.5 31.580078 29.089844 27.089844 26.089844 26.029948 C 27.559896 24.839844 28.5 23.029948 28.5 21 C 28.5 18.589844 27.169922 16.5 25.220052 15.379883 C 25.709961 14.709961 26 13.889974 26 13 C 26 10.790039 24.209961 9 22 9 Z M 22 9 " transform="matrix(12,0,0,12,2700,0)"/>
<path style="fill:none;stroke-width:1.5;stroke-linecap:round;stroke-linejoin:miter;stroke:rgb(0%,0%,0%);stroke-opacity:1;stroke-miterlimit:4;" d="M 22.5 11.629883 L 22.5 6 " transform="matrix(12,0,0,12,0,540)"/>
<path style="fill-rule:evenodd;fill:rgb(0%,0%,0%);fill-opacity:1;stroke-width:1.5;stroke-linecap:butt;stroke-linejoin:miter;stroke:rgb(0%,0%,0%);stroke-opacity:1;stroke-miterlimit:4;" d="M 22.5 25 C 22.5 25 27 17.5 25.5 14.5 C 25.5 14.5 24.5 12 22.5 12 C 20.5 12 19.5 14.5 19.5 14.5 C 18 17.5 22.5 25 22.5 25 " transform="matrix(12,0,0,12,0,540)"/>
<path style="fill-rule:evenodd;fill:rgb(0%,0%,0%);fill-opacity:1;stroke-width:1.5;stroke-linecap:round;stroke-linejoin:round;stroke:rgb(0%,0%,0%);stroke-opacity:1;stroke-miterlimit:4;" d="M 11.5 37 C 17 40.5 27 40.5 32.5 37 L 32.5 30 C 32.5 30 41.5 25.5 38.5 19.5 C 34.5 13 25 16 22.5 23.5 L 22.5 27 L 22.5 23.5 C 19 16 9.5 13 6.5 19.5 C 3.5 25.5 11.5 29.5 11.5 29.5 Z M 11.5 37 " transform="matrix(12,0,0,12,0,540)"/>
<path style="fill:none;stroke-width:1.5;stroke-linecap:round;stroke-linejoin:miter;stroke:rgb(0%,0%,0%);stroke-opacity:1;stroke-miterlimit:4;" d="M 20 8 L 25 8 " transform="matrix(12,0,0,12,0,540)"/>
<path style="fill:none;stroke-width:1.5;stroke-linecap:round;stroke-linejoin:round;stroke:rgb(100%,100%,100%);stroke-opacity:1;stroke-miterlimit:4;" d="M 32 29.5 C 32 29.5 40.5 25.5 38.029948 19.849935 C 34.150065 14 25 18 22.5 24.5 L 22.510091 26.599935 L 22.5 24.5 C 20 18 9.905924 14 6.99707 19.849935 C 4.5 25.5 11.849935 28.849935 11.849935 28.849935 " transform="matrix(12,0,0,12,0,540)"/>
<path style="fill:none;stroke-width:1.5;stroke-linecap:round;stroke-linejoin:round;stroke:rgb(100%,100%,100%);stroke-opacity:1;stroke-miterlimit:4;" d="M 11.5 30 C 17 27 27 27 32.5 30 M 11.5 33.5 C 17 30.5 27 30.5 32.5 33.5 M 11.5 37 C 17 34 27 34 32.5 37 " transform="matrix(12,0,0,12,0,540)"/>
<path style=" stroke:none;fill-rule:evenodd;fill:rgb(0%,0%,0%);fill-opacity:1;" d="M 645 684 C 645 702.226562 630.226562 717 612 717 C 593.773438 717 579 702.226562 579 684 C 579 665.773438 593.773438 651 612 651 C 630.226562 651 645 665.773438 645 684 Z M 645 684 "/>
<path style=" stroke:none;fill-rule:evenodd;fill:rgb(0%,0%,0%);fill-opacity:1;" d="M 741 648 C 741 666.226562 726.226562 681 708 681 C 689.773438 681 675 666.226562 675 648 C 675 629.773438 689.773438 615 708 615 C 726.226562 615 741 629.773438 741 648 Z M 741 648 "/>
<path style=" stroke:none;fill-rule:evenodd;fill:rgb(0%,0%,0%);fill-opacity:1;" d="M 843 636 C 843 654.226562 828.226562 669 810 669 C 791.773438 669 777 654.226562 777 636 C 777 617.773438 791.773438 603 810 603 C 828.226562 603 843 617.773438 843 636 Z M 843 636 "/>
<path style=" stroke:none;fill-rule:evenodd;fill:rgb(0%,0%,0%);fill-opacity:1;" d="M 945 648 C 945 666.226562 930.226562 681 912 681 C 893.773438 681 879 666.226562 879 648 C 879 629.773438 893.773438 615 912 615 C 930.226562 615 945 629.773438 945 648 Z M 945 648 "/>
<path style=" stroke:none;fill-rule:evenodd;fill:rgb(0%,0%,0%);fill-opacity:1;" d="M 1041 684 C 1041 702.226562 1026.226562 717 1008 717 C 989.773438 717 975 702.226562 975 684 C 975 665.773438 989.773438 651 1008 651 C 1026.226562 651 1041 665.773438 1041 684 Z M 1041 684 "/>
<path style="fill-rule:evenodd;fill:rgb(0%,0%,0%);fill-opacity:1;stroke-width:1.5;stroke-linecap:butt;stroke-linejoin:round;stroke:rgb(0%,0%,0%);stroke-opacity:1;stroke-miterlimit:4;" d="M 9 26 C 17.5 24.5 30 24.5 36 26 L 38.5 13.5 L 31 25 L 30.69987 10.900065 L 25.5 24.5 L 22.5 10 L 19.5 24.5 L 14.30013 10.900065 L 14 25 L 6.5 13.5 Z M 9 26 " transform="matrix(12,0,0,12,540,540)"/>
<path style="fill-rule:evenodd;fill:rgb(0%,0%,0%);fill-opacity:1;stroke-width:1.5;stroke-linecap:butt;stroke-linejoin:round;stroke:rgb(0%,0%,0%);stroke-opacity:1;stroke-miterlimit:4;" d="M 9 26 C 9 28 10.5 28 11.5 30 C 12.5 31.5 12.5 31 12 33.5 C 10.5 34.5 10.5 36 10.5 36 C 9 37.5 11 38.5 11 38.5 C 17.5 39.5 27.5 39.5 34 38.5 C 34 38.5 35.5 37.5 34 36 C 34 36 34.5 34.5 33 33.5 C 32.5 31 32.5 31.5 33.5 30 C 34.5 28 36 28 36 26 C 27.5 24.5 17.5 24.5 9 26 Z M 9 26 " transform="matrix(12,0,0,12,540,540)"/>
<path style="fill:none;stroke-width:1.5;stroke-linecap:butt;stroke-linejoin:round;stroke:rgb(0%,0%,0%);stroke-opacity:1;stroke-miterlimit:4;" d="M 11 38.5 C 18.447917 41.09082 26.552083 41.09082 34 38.5 " transform="matrix(12,0,0,12,540,540)"/>
<path style="fill:none;stroke-width:1.5;stroke-linecap:round;stroke-linejoin:round;stroke:rgb(100%,100%,100%);stroke-opacity:1;stroke-miterlimit:4;" d="M 11 29 C 18.447917 26.40918 26.552083 26.40918 34 29 " transform="matrix(12,0,0,12,540,540)"/>
<path style="fill:none;stroke-width:1.5;stroke-linecap:round;stroke-linejoin:round;stroke:rgb(100%,100%,100%);stroke-opacity:1;stroke-miterlimit:4;" d="M 12.5 31.5 L 32.5 31.5 " transform="matrix(12,0,0,12,540,540)"/>
<path style="fill:none;stroke-width:1.5;stroke-linecap:round;stroke-linejoin:round;stroke:rgb(100%,100%,100%);stroke-opacity:1;stroke-miterlimit:4;" d="M 11.5 34.5 C 18.642578 36.864583 26.357422 36.864583 33.5 34.5 " transform="matrix(12,0,0,12,540,540)"/>
<path style="fill:none;stroke-width:1.5;stroke-linecap:round;stroke-linejoin:round;stroke:rgb(100%,100%,100%);stroke-opacity:1;stroke-miterlimit:4;" d="M 10.5 37.5 C 18.25 40.328451 26.75 40.328451 34.5 37.5 " transform="matrix(12,0,0,12,540,540)"/>
<path style="fill-rule:evenodd;fill:rgb(0%,0%,0%);fill-opacity:1;stroke-width:1.5;stroke-linecap:butt;stroke-linejoin:round;stroke:rgb(0%,0%,0%);stroke-opacity:1;stroke-miterlimit:4;" d="M 9 36 C 12.389974 35.029948 19.110026 36.430013 22.5 34 C 25.889974 36.430013 32.610026 35.029948 36 36 C 36 36 37.650065 36.540039 39 38 C 38.319987 38.970052 37.349935 38.989909 36 38.5 C 32.610026 37.529948 25.889974 38.959961 22.5 37.5 C 19.110026 38.959961 12.389974 37.529948 9 38.5 C 7.646159 38.989909 6.677083 38.970052 6 38 C 7.353841 36.059896 9 36 9 36 Z M 9 36 " transform="matrix(12,0,0,12,1080,540)"/>
<path style="fill-rule:evenodd;fill:rgb(0%,0%,0%);fill-opacity:1;stroke-width:1.5;stroke-linecap:butt;stroke-linejoin:round;stroke:rgb(0%,0%,0%);stroke-opacity:1;stroke-miterlimit:4;" d="M 15 32 C 17.5 34.5 27.5 34.5 30 32 C 30.5 30.5 30 30 30 30 C 30 27.5 27.5 26 27.5 26 C 33 24.5 33.5 14.5 22.5 10.5 C 11.5 14.5 12 24.5 17.5 26 C 17.5 26 15 27.5 15 30 C 15 30 14.5 30.5 15 32 Z M 15 32 " transform="matrix(12,0,0,12,1080,540)"/>
<path style="fill-rule:evenodd;fill:rgb(0%,0%,0%);fill-opacity:1;stroke-width:1.5;stroke-linecap:butt;stroke-linejoin:round;stroke:rgb(0%,0%,0%);stroke-opacity:1;stroke-miterlimit:4;" d="M 25 8 C 25 9.380859 23.880859 10.5 22.5 10.5 C 21.119141 10.5 20 9.380859 20 8 C 20 6.619141 21.119141 5.5 22.5 5.5 C 23.880859 5.5 25 6.619141 25 8 Z M 25 8 " transform="matrix(12,0,0,12,1080,540)"/>
<path style="fill:none;stroke-width:1.5;stroke-linecap:round;stroke-linejoin:miter;stroke:rgb(100%,100%,100%);stroke-opacity:1;stroke-miterlimit:4;" d="M 17.5 26 L 27.5 26 M 15 30 L 30 30 M 22.5 15.5 L 22.5 20.5 M 20 18 L 25 18 " transform="matrix(12,0,0,12,1080,540)"/>
<path style="fill-rule:evenodd;fill:rgb(0%,0%,0%);fill-opacity:1;stroke-width:1.5;stroke-linecap:round;stroke-linejoin:round;stroke:rgb(0%,0%,0%);stroke-opacity:1;stroke-miterlimit:4;" d="M 22 10 C 32.5 11 38.5 18 38 39 L 15 39 C 15 30 25 32.5 23 18 " transform="matrix(12,0,0,12,1620,540)"/>
<path style="fill-rule:evenodd;fill:rgb(0%,0%,0%);fill-opacity:1;stroke-width:1.5;stroke-linecap:round;stroke-linejoin:round;stroke:rgb(0%,0%,0%);stroke-opacity:1;stroke-miterlimit:4;" d="M 24 18 C 24.379883 20.910156 18.44987 25.370117 16 27 C 13 29 13.180013 31.339844 11 31 C 9.958008 30.059896 12.410156 27.959961 11 28 C 10 28 11.190104 29.230143 10 30 C 9 30 5.99707 31 6 26 C 6 24 12 14 12 14 C 12 14 13.889974 12.099935 14 10.5 C 13.269857 9.505859 13.5 8.5 13.5 7.5 C 14.5 6.5 16.5 10 16.5 10 L 18.5 10 C 18.5 10 19.279948 8.008138 21 7 C 22 7 22 10 22 10 " transform="matrix(12,0,0,12,1620,540)"/>
<path style="fill-rule:evenodd;fill:rgb(100%,100%,100%);fill-opacity:1;stroke-width:1.5;stroke-linecap:round;stroke-linejoin:round;stroke:rgb(100%,100%,100%);stroke-opacity:1;stroke-miterlimit:4;" d="M 9.5 25.5 C 9.5 25.776042 9.276042 26 9 26 C 8.723958 26 8.5 25.776042 8.5 25.5 C 8.5 25.223958 8.723958 25 9 25 C 9.276042 25 9.5 25.223958 9.5 25.5 Z M 9.5 25.5 " transform="matrix(12,0,0,12,1620,540)"/>
<path style="fill-rule:evenodd;fill:rgb(100%,100%,100%);fill-opacity:1;stroke-width:1.5;stroke-linecap:round;stroke-linejoin:round;stroke:rgb(100%,100%,100%);stroke-opacity:1;stroke-miterlimit:4;" d="M 14.99995 15.500029 C 15.000096 16.328406 14.776297 17.00003 14.500077 17.000133 C 14.223694 16.999954 13.999914 16.328512 14.00005 15.499971 C 13.999904 14.671594 14.223703 13.99997 14.499923 13.999867 C 14.776306 14.000046 15.000086 14.671488 14.99995 15.500029 Z M 14.99995 15.500029 " transform="matrix(10.392,6,-6,10.392,1736.316,477.924)"/>
<path style=" stroke:none;fill-rule:evenodd;fill:rgb(100%,100%,100%);fill-opacity:1;" d="M 1914.601562 664.800781 L 1909.199219 682.199219 L 1915.199219 684 C 1953 696 1983 713.878906 2010 765 C 2037 816.121094 2049 888.71875 2043 1008 L 2042.398438 1014 L 2069.398438 1014 L 2070 1008 C 2076 887.28125 2059.441406 805.800781 2031 751.921875 C 2002.558594 698.039062 1961.519531 672.238281 1920.71875 666 Z M 1914.601562 664.800781 "/>
<path style="fill-rule:evenodd;fill:rgb(0%,0%,0%);fill-opacity:1;stroke-width:1.5;stroke-linecap:butt;stroke-linejoin:round;stroke:rgb(0%,0%,0%);stroke-opacity:1;stroke-miterlimit:4;" d="M 9 39 L 36 39 L 36 36 L 9 36 Z M 9 39 " transform="matrix(12,0,0,12,2160,540)"/>
<path style="fill-rule:evenodd;fill:rgb(0%,0%,0%);fill-opacity:1;stroke-width:1.5;stroke-linecap:butt;stroke-linejoin:round;stroke:rgb(0%,0%,0%);stroke-opacity:1;stroke-miterlimit:4;" d="M 12.5 32 L 14 29.5 L 31 29.5 L 32.5 32 Z M 12.5 32 " transform="matrix(12,0,0,12,2160,540)"/>
<path style="fill-rule:evenodd;fill:rgb(0%,0%,0%);fill-opacity:1;stroke-width:1.5;stroke-linecap:butt;stroke-linejoin:round;stroke:rgb(0%,0%,0%);stroke-opacity:1;stroke-miterlimit:4;" d="M 12 36 L 12 32 L 33 32 L 33 36 Z M 12 36 " transform="matrix(12,0,0,12,2160,540)"/>
<path style="fill-rule:evenodd;fill:rgb(0%,0%,0%);fill-opacity:1;stroke-width:1.5;stroke-linecap:butt;stroke-linejoin:miter;stroke:rgb(0%,0%,0%);stroke-opacity:1;stroke-miterlimit:4;" d="M 14 29.5 L 14 16.5 L 31 16.5 L 31 29.5 Z M 14 29.5 " transform="matrix(12,0,0,12,2160,540)"/>
<path style="fill-rule:evenodd;fill:rgb(0%,0%,0%);fill-opacity:1;stroke-width:1.5;stroke-linecap:butt;stroke-linejoin:round;stroke:rgb(0%,0%,0%);stroke-opacity:1;stroke-miterlimit:4;" d="M 14 16.5 L 11 14 L 34 14 L 31 16.5 Z M 14 16.5 " transform="matrix(12,0,0,12,2160,540)"/>
<path style="fill-rule:evenodd;fill:rgb(0%,0%,0%);fill-opacity:1;stroke-width:1.5;stroke-linecap:butt;stroke-linejoin:round;stroke:rgb(0%,0%,0%);stroke-opacity:1;stroke-miterlimit:4;" d="M 11 14 L 11 9 L 15 9 L 15 11 L 20 11 L 20 9 L 25 9 L 25 11 L 30 11 L 30 9 L 34 9 L 34 14 Z M 11 14 " transform="matrix(12,0,0,12,2160,540)"/>
<path style="fill:none;stroke-width:1;stroke-linecap:round;stroke-linejoin:miter;stroke:rgb(100%,100%,100%);stroke-opacity:1;stroke-miterlimit:4;" d="M 12 35.5 L 33 35.5 " transform="matrix(12,0,0,12,2160,540)"/>
<path style="fill:none;stroke-width:1;stroke-linecap:round;stroke-linejoin:miter;stroke:rgb(100%,100%,100%);stroke-opacity:1;stroke-miterlimit:4;" d="M 13 31.5 L 32 31.5 " transform="matrix(12,0,0,12,2160,540)"/>
<path style="fill:none;stroke-width:1;stroke-linecap:round;stroke-linejoin:miter;stroke:rgb(100%,100%,100%);stroke-opacity:1;stroke-miterlimit:4;" d="M 14 29.5 L 31 29.5 " transform="matrix(12,0,0,12,2160,540)"/>
<path style="fill:none;stroke-width:1;stroke-linecap:round;stroke-linejoin:miter;stroke:rgb(100%,100%,100%);stroke-opacity:1;stroke-miterlimit:4;" d="M 14 16.5 L 31 16.5 " transform="matrix(12,0,0,12,2160,540)"/>
<path style="fill:none;stroke-width:1;stroke-linecap:round;stroke-linejoin:miter;stroke:rgb(100%,100%,100%);stroke-opacity:1;stroke-miterlimit:4;" d="M 11 14 L 34 14 " transform="matrix(12,0,0,12,2160,540)"/>
<path style="fill-rule:nonzero;fill:rgb(0%,0%,0%);fill-opacity:1;stroke-width:1.5;stroke-linecap:round;stroke-linejoin:miter;stroke:rgb(0%,0%,0%);stroke-opacity:1;stroke-miterlimit:4;" d="M 22 9 C 19.790039 9 18 10.790039 18 13 C 18 13.889974 18.290039 14.709961 18.779948 15.379883 C 16.830078 16.5 15.5 18.589844 15.5 21 C 15.5 23.029948 16.440104 24.839844 17.910156 26.029948 C 14.910156 27.089844 10.5 31.580078 10.5 39.5 L 33.5 39.5 C 33.5 31.580078 29.089844 27.089844 26.089844 26.029948 C 27.559896 24.839844 28.5 23.029948 28.5 21 C 28.5 18.589844 27.169922 16.5 25.220052 15.379883 C 25.709961 14.709961 26 13.889974 26 13 C 26 10.790039 24.209961 9 22 9 Z M 22 9 " transform="matrix(12,0,0,12,2700,540)"/>
</g>
</svg>
